<?xml version="1.0" standalone="no"?>
<!DOCTYPE svg PUBLIC "-//W3C//DTD SVG 20010904//EN"
 "http://www.w3.org/TR/2001/REC-SVG-20010904/DTD/svg10.dtd">
<svg version="1.0" xmlns="http://www.w3.org/2000/svg"
 width="640.000000pt" height="640.000000pt" viewBox="0 0 640.000000 640.000000"
 preserveAspectRatio="xMidYMid meet">

<g transform="translate(0.000000,640.000000) scale(0.100000,-0.100000)"
fill="#000000" stroke="none">
<path d="M1440 6385 c-482 -66 -907 -336 -1172 -745 -136 -209 -220 -438 -254
-690 -20 -156 -20 -3344 0 -3501 36 -265 142 -536 293 -749 87 -122 272 -306
393 -392 223 -159 495 -262 780 -297 117 -15 3323 -15 3440 0 285 35 556 138
780 297 122 86 306 270 392 392 161 227 265 503 298 785 14 125 14 3320 -1
3435 -35 285 -138 557 -297 780 -86 121 -270 306 -392 393 -213 151 -484 257
-749 293 -150 19 -3365 19 -3511 -1z m3492 -550 c92 -16 233 -62 313 -103 330
-166 563 -504 604 -875 15 -129 15 -3185 1 -3312 -31 -272 -129 -476 -324
-671 -195 -195 -399 -293 -671 -324 -127 -14 -3183 -14 -3312 1 -502 56 -912
450 -983 944 -8 58 -10 542 -8 1750 l3 1670 28 100 c51 187 161 379 292 510
157 156 374 270 592 309 120 22 3341 23 3465 1z"/>
<path d="M4900 5329 c-104 -21 -210 -102 -258 -195 -93 -183 -13 -407 178
-498 57 -27 76 -31 150 -31 72 0 94 5 145 28 71 33 147 104 180 167 119 232
-34 508 -295 533 -30 3 -75 2 -100 -4z"/>
<path d="M2989 4775 c-693 -99 -1227 -615 -1357 -1310 -26 -140 -23 -417 6
-563 127 -637 613 -1132 1238 -1263 529 -110 1065 51 1450 435 277 278 434
619 463 1005 61 803 -492 1526 -1285 1681 -141 28 -381 35 -515 15z m391 -485
c231 -37 472 -166 631 -338 407 -439 395 -1114 -27 -1536 -370 -369 -945 -431
-1379 -148 -265 173 -446 449 -495 752 -15 95 -12 286 5 377 45 232 138 407
309 579 169 168 345 263 572 308 83 17 294 20 384 6z"/>
</g>
</svg>
